<?xml version="1.0" standalone="no"?>
<!DOCTYPE svg PUBLIC "-//W3C//DTD SVG 20010904//EN"
 "http://www.w3.org/TR/2001/REC-SVG-20010904/DTD/svg10.dtd">
<svg version="1.0" xmlns="http://www.w3.org/2000/svg"
 width="205.000000pt" height="198.000000pt" viewBox="0 0 205.000000 198.000000"
 preserveAspectRatio="xMidYMid meet">

<g transform="translate(0.000000,198.000000) scale(0.100000,-0.100000)"
fill="#000000" stroke="none">
<path d="M880 1643 c-254 -403 -423 -673 -563 -895 -76 -119 -137 -219 -137
-222 0 -3 383 -6 850 -6 468 0 850 3 850 6 0 3 -98 161 -219 352 -120 191
-309 491 -420 667 -111 176 -205 321 -210 323 -4 1 -72 -100 -151 -225z m525
-390 c204 -323 389 -617 412 -655 l43 -68 -33 0 c-29 0 -79 46 -522 475 -270
261 -490 480 -490 487 0 15 205 348 214 348 3 0 173 -264 376 -587z m-445 62
c83 -82 149 -153 147 -158 -1 -4 -115 -147 -252 -317 l-250 -309 -64 0 c-46
-1 -62 2 -59 12 3 6 74 218 159 469 85 252 157 457 161 455 4 -1 75 -69 158
-152z m-297 -182 c-51 -153 -118 -351 -149 -440 l-56 -163 -130 0 c-101 0
-127 3 -121 12 4 7 108 173 231 368 124 195 245 388 270 428 25 39 46 72 47
72 1 0 -40 -125 -92 -277z m640 -300 c82 -146 147 -266 145 -268 -2 -2 -46 27
-98 64 -52 37 -164 116 -248 175 -83 59 -154 111 -156 114 -2 4 37 56 87 116
90 108 91 109 107 86 8 -12 82 -142 163 -287z m432 -272 l29 -32 -138 3 -138
3 -120 215 c-65 118 -138 249 -160 290 l-42 75 270 -262 c148 -143 282 -275
299 -292z m-543 158 c134 -94 247 -175 252 -180 6 -5 -100 -9 -265 -9 l-274 0
12 148 c6 81 12 162 12 180 1 17 5 32 11 32 5 0 119 -77 252 -171z m-277 144
c-2 -10 -9 -89 -16 -175 l-12 -158 -130 0 c-126 0 -129 0 -116 19 35 49 265
330 271 330 3 1 5 -7 3 -16z"/>
<path d="M83 326 c25 -20 25 -192 0 -212 -15 -11 -5 -13 75 -14 l92 0 0 30 c0
34 -15 40 -23 10 -4 -16 -14 -20 -51 -20 l-46 0 0 50 0 50 43 1 42 2 -40 6
c-39 6 -40 7 -43 49 l-3 42 41 0 c33 0 43 -4 47 -20 8 -30 23 -24 23 10 l0 30
-87 0 c-75 -1 -85 -3 -70 -14z"/>
<path d="M327 319 c-15 -11 -32 -37 -38 -59 -26 -87 22 -160 106 -160 65 0 75
7 75 51 0 26 6 41 18 48 13 8 6 10 -32 11 -47 0 -48 -1 -33 -18 10 -10 17 -31
17 -45 0 -25 -3 -27 -39 -27 -31 0 -44 6 -60 26 -33 42 -26 141 13 166 6 4 26
8 44 8 26 0 35 -5 39 -20 6 -24 21 -26 29 -5 18 45 -89 64 -139 24z"/>
<path d="M520 331 c0 -5 7 -11 15 -15 23 -8 21 -172 -2 -198 -15 -17 -14 -18
33 -18 43 1 47 2 32 14 -13 9 -18 27 -18 60 l0 46 55 0 55 0 0 -46 c0 -33 -5
-51 -17 -60 -16 -12 -11 -13 37 -14 52 0 53 1 32 16 -20 14 -22 23 -22 105 0
70 3 91 15 95 30 12 14 24 -30 24 -25 0 -45 -4 -45 -10 0 -5 7 -10 15 -10 11
0 15 -12 15 -45 l0 -45 -55 0 -55 0 0 45 c0 33 4 45 15 45 8 0 15 5 15 10 0 6
-20 10 -45 10 -25 0 -45 -4 -45 -9z"/>
<path d="M776 318 c-7 -29 10 -47 19 -19 4 14 15 21 31 21 24 0 24 -1 24 -100
0 -84 -3 -101 -17 -109 -14 -8 -5 -10 37 -10 42 0 51 2 38 10 -15 8 -18 25
-18 109 0 99 0 100 24 100 16 0 27 -7 31 -20 9 -28 29 -25 21 3 -3 12 -6 25
-6 30 0 4 -40 7 -89 7 -83 0 -89 -1 -95 -22z"/>
<path d="M1003 326 c25 -20 25 -192 0 -212 -15 -11 -5 -13 75 -14 l92 0 0 30
c0 34 -15 40 -23 10 -4 -16 -14 -20 -52 -20 l-46 0 3 48 c3 47 3 47 43 53 l40
5 -40 5 c-39 4 -40 5 -43 47 l-3 42 41 0 c33 0 43 -4 47 -20 8 -30 23 -24 23
10 l0 30 -87 0 c-75 -1 -85 -3 -70 -14z"/>
<path d="M1200 331 c0 -5 7 -11 15 -15 23 -9 21 -172 -2 -199 -18 -19 -17 -19
61 -15 70 3 81 6 101 30 50 58 36 165 -25 195 -29 14 -150 18 -150 4z m146
-32 c14 -16 19 -36 19 -79 0 -71 -21 -100 -72 -100 l-33 0 0 100 0 100 33 0
c22 0 41 -8 53 -21z"/>
<path d="M1495 238 c-20 -57 -44 -111 -53 -120 -14 -17 -12 -18 28 -18 38 0
42 2 26 13 -13 9 -16 20 -11 40 7 25 11 27 55 27 43 0 48 -3 54 -26 5 -19 2
-30 -11 -40 -16 -12 -12 -13 31 -14 46 0 48 1 34 18 -8 9 -22 37 -31 62 -49
136 -60 160 -71 160 -7 0 -30 -46 -51 -102z m63 13 c16 -52 16 -51 -22 -51
l-34 0 17 45 c9 25 19 45 22 45 3 0 11 -17 17 -39z"/>
<path d="M1680 332 c0 -5 7 -12 15 -16 23 -8 21 -172 -2 -198 -15 -17 -14 -18
33 -18 44 1 47 2 31 14 -13 10 -17 25 -15 52 2 21 8 39 13 40 6 2 26 -20 45
-49 22 -32 44 -53 58 -55 28 -4 28 1 -1 32 -12 13 -29 36 -37 50 -12 24 -11
28 8 47 25 23 28 57 8 84 -11 15 -30 20 -85 23 -44 3 -71 0 -71 -6z m131 -38
c13 -35 -11 -74 -46 -74 -23 0 -25 3 -25 50 0 49 1 50 30 50 24 0 33 -6 41
-26z"/>
<path d="M1913 322 c13 -14 17 -38 17 -102 0 -64 -4 -88 -17 -102 -15 -17 -14
-18 33 -18 43 1 47 2 32 14 -15 11 -18 29 -18 106 0 77 3 95 18 106 15 12 11
13 -32 14 -47 0 -48 -1 -33 -18z"/>
</g>
</svg>
